<svg xmlns="http://www.w3.org/2000/svg" width="512" height="512" viewBox="0 0 512 512">
  <defs>
    <linearGradient id="bg" x1="96" y1="64" x2="416" y2="448" gradientUnits="userSpaceOnUse">
      <stop offset="0" stop-color="#f8fafc"/>
      <stop offset="1" stop-color="#eef7f4"/>
    </linearGradient>
    <filter id="shadow" x="-20%" y="-20%" width="140%" height="140%">
      <feDropShadow dx="0" dy="24" stdDeviation="32" flood-color="#059669" flood-opacity="0.18"/>
    </filter>
  </defs>
  <rect x="64" y="64" width="384" height="384" rx="92" fill="url(#bg)" filter="url(#shadow)"/>
  <path d="M64 252c58-30 46-118 94-166h58l-152 256z" fill="#a7f3d0" opacity="0.48"/>
  <path d="M230 64h72l82 384h-72z" fill="#99f6e4" opacity="0.46"/>
  <path d="M448 240c-58 32-42 119-93 160h-58l151-252z" fill="#a7f3d0" opacity="0.52"/>
  <rect x="64" y="64" width="384" height="384" rx="92" fill="none" stroke="#cbd5e1" stroke-width="8"/>
  <g transform="translate(126 126) scale(10.833333)">
    <path
      d="M18 3a3 3 0 0 0-3 3v12a3 3 0 1 0 3-3H6a3 3 0 1 0 3 3V6a3 3 0 1 0-3 3h12a3 3 0 1 0 0-6"
      fill="none"
      stroke="#059669"
      stroke-width="2.25"
      stroke-linecap="round"
      stroke-linejoin="round"
    />
  </g>
</svg>
